<svg id="Layer_3" enable-background="new 0 0 64 64" height="512" viewBox="0 0 64 64" width="512" xmlns="http://www.w3.org/2000/svg"><path d="m62 41h-10v-5.382l1.658.829c.724.362 1.533.553 2.342.553s1.618-.191 2.342-.553l3.105-1.553c.339-.169.553-.515.553-.894s-.214-.725-.553-.895l-3.105-1.553c-.132-.066-.269-.119-.406-.173.262-.218.529-.431.771-.673 1.438-1.438 2.457-3.238 2.948-5.208l.314-1.256c.086-.341-.014-.702-.263-.95-.248-.248-.606-.348-.95-.263l-1.255.313c-1.971.492-3.771 1.512-5.209 2.949-.12.12-.219.256-.333.381.013-.223.041-.447.041-.672 0-2.118-.501-4.238-1.447-6.131l-.658-1.316c-.34-.678-1.449-.678-1.789 0l-.658 1.316c-.947 1.893-1.448 4.013-1.448 6.131 0 .225.028.449.04.674-.114-.125-.213-.261-.333-.381-1.438-1.438-3.238-2.457-5.208-2.948l-1.256-.314c-.343-.085-.702.015-.95.263-.249.248-.349.609-.263.95l.313 1.255c.492 1.971 1.512 3.771 2.949 5.209.242.242.509.455.771.673-.137.054-.274.107-.406.173l-3.105 1.553c-.338.168-.552.514-.552.893s.214.725.553.895l3.105 1.553c.724.361 1.533.552 2.342.552s1.618-.191 2.342-.553l1.658-.829v5.382h-10c-.553 0-1 .447-1 1v4c0 .553.447 1 1 1h1.061l.941 15.062c.033.528.47.938.998.938h16c.528 0 .965-.41.998-.938l.941-15.062h1.061c.553 0 1-.447 1-1v-4c0-.553-.447-1-1-1zm-3.236-7-1.316.658c-.895.447-2 .447-2.895 0l-1.317-.658 1.316-.658c.895-.447 2-.447 2.895 0zm-3.057-6.293c1.09-1.089 2.434-1.887 3.907-2.321-.435 1.474-1.231 2.817-2.321 3.907s-2.434 1.887-3.907 2.321c.434-1.473 1.231-2.817 2.321-3.907zm-4.707-6.441c.655 1.485 1 3.11 1 4.734s-.345 3.249-1 4.734c-.655-1.485-1-3.11-1-4.734s.345-3.249 1-4.734zm-8.614 4.12c1.474.435 2.817 1.231 3.907 2.321 1.089 1.09 1.887 2.434 2.321 3.907-1.474-.435-2.817-1.231-3.907-2.321-1.089-1.09-1.887-2.434-2.321-3.907zm5.061 9.272c-.895.447-2 .447-2.895 0l-1.316-.658 1.316-.658c.895-.447 2-.447 2.895 0l1.317.658zm10.614 26.342h-14.122l-.875-14h15.871zm2.939-16h-20v-2h20z"/><path d="m24 41h-10v-5.382l1.658.829c.724.362 1.533.553 2.342.553s1.618-.191 2.342-.553l3.105-1.553c.339-.169.553-.515.553-.894s-.214-.725-.553-.895l-3.105-1.553c-.132-.066-.269-.119-.406-.173.262-.218.529-.431.771-.673 1.438-1.438 2.457-3.238 2.948-5.208l.314-1.256c.086-.341-.014-.702-.263-.95-.248-.248-.606-.348-.95-.263l-1.255.313c-1.971.492-3.771 1.512-5.209 2.949-.12.12-.219.256-.333.381.013-.223.041-.447.041-.672 0-2.118-.501-4.238-1.447-6.131l-.658-1.316c-.34-.678-1.449-.678-1.789 0l-.658 1.316c-.947 1.893-1.448 4.013-1.448 6.131 0 .225.028.449.04.674-.114-.125-.213-.261-.333-.381-1.438-1.438-3.238-2.457-5.208-2.948l-1.256-.315c-.342-.085-.702.015-.95.263-.249.248-.349.609-.263.95l.313 1.255c.492 1.971 1.512 3.771 2.949 5.209.242.242.509.455.771.673-.137.054-.274.107-.406.173l-3.105 1.553c-.338.169-.552.515-.552.894s.214.725.553.895l3.105 1.553c.724.361 1.533.552 2.342.552s1.618-.191 2.342-.553l1.658-.829v5.382h-10c-.553 0-1 .447-1 1v4c0 .553.447 1 1 1h1.061l.941 15.062c.033.528.47.938.998.938h16c.528 0 .965-.41.998-.938l.941-15.062h1.061c.553 0 1-.447 1-1v-4c0-.553-.447-1-1-1zm-3.236-7-1.316.658c-.895.447-2 .447-2.895 0l-1.317-.658 1.316-.658c.895-.447 2-.447 2.895 0zm-3.057-6.293c1.09-1.089 2.434-1.887 3.907-2.321-.435 1.474-1.231 2.817-2.321 3.907s-2.434 1.887-3.907 2.321c.434-1.473 1.231-2.817 2.321-3.907zm-4.707-6.441c.655 1.485 1 3.11 1 4.734s-.345 3.249-1 4.734c-.655-1.485-1-3.11-1-4.734s.345-3.249 1-4.734zm-8.614 4.12c1.474.435 2.817 1.231 3.907 2.321 1.089 1.09 1.887 2.434 2.321 3.907-1.474-.435-2.817-1.231-3.907-2.321-1.089-1.09-1.887-2.434-2.321-3.907zm5.061 9.272c-.895.447-2 .447-2.895 0l-1.316-.658 1.316-.658c.895-.447 2-.447 2.895 0l1.317.658zm10.614 26.342h-14.122l-.875-14h15.871zm2.939-16h-20v-2h20z"/><path d="m42 21c.228 0 .455-.077.641-.231l6-5c.323-.27.443-.713.3-1.109-.144-.396-.52-.66-.941-.66h-3.035c-.515-7.255-6.582-13-13.965-13-7.72 0-14 6.28-14 14 0 .553.447 1 1 1h4c.553 0 1-.447 1-1 0-4.411 3.589-8 8-8 4.072 0 7.444 3.06 7.938 7h-2.938c-.421 0-.797.264-.94.659-.144.396-.023.84.3 1.109l6 5c.185.155.412.232.64.232zm-2-5c.553 0 1-.447 1-1 0-5.514-4.486-10-10-10-5.177 0-9.447 3.954-9.95 9h-2.009c.51-6.15 5.679-11 11.959-11 6.617 0 12 5.383 12 12 0 .553.447 1 1 1h1.238l-3.238 2.698-3.238-2.698z"/></svg>