<?xml version="1.0" encoding="utf-8"?>
<!-- Generator: Adobe Illustrator 24.0.0, SVG Export Plug-In . SVG Version: 6.00 Build 0)  -->
<svg version="1.1" id="레이어_1" xmlns="http://www.w3.org/2000/svg" xmlns:xlink="http://www.w3.org/1999/xlink" x="0px"
	 y="0px" viewBox="0 0 32 32" style="enable-background:new 0 0 32 32;" xml:space="preserve">
<style type="text/css">
	.st0{fill:#1A1E28;}
	.st1{clip-path:url(#SVGID_2_);}
	.st2{fill:#FF0000;stroke:#FF0000;stroke-width:0.5;stroke-miterlimit:10;}
</style>
<circle class="st0" cx="16" cy="16" r="16"/>
<polygon class="st0" points="13.3,3.8 13.3,10.6 6.6,18.6 12.2,18.6 25.3,18.6 "/>
<polygon class="st0" points="8.2,21 8.2,25.6 9.7,26.8 12.4,26.1 14.5,25.8 16.9,26.8 18.7,26.8 21.1,25.7 24.3,22.3 24.9,21 "/>
<g>
	<defs>
		<circle id="SVGID_1_" cx="16" cy="16" r="16"/>
	</defs>
	<clipPath id="SVGID_2_">
		<use xlink:href="#SVGID_1_"  style="overflow:visible;"/>
	</clipPath>
	<g class="st1">
		<g>
			<g>
				<path class="st2" d="M2.4,27.3c1.1,0,1.7-0.3,2.2-0.7c0.5-0.3,0.8-0.5,1.6-0.5s1.2,0.2,1.6,0.5c0.5,0.3,1.1,0.7,2.2,0.7
					s1.7-0.3,2.2-0.7c0.5-0.3,0.8-0.5,1.6-0.5c0.8,0,1.2,0.2,1.6,0.5c0.5,0.3,1.1,0.7,2.2,0.7c1.1,0,1.7-0.3,2.2-0.7
					c0.5-0.3,0.8-0.5,1.6-0.5c0.8,0,1.2,0.2,1.6,0.5c0.5,0.3,1.1,0.7,2.2,0.7s1.7-0.3,2.2-0.7c0.5-0.3,0.8-0.5,1.6-0.5
					c0.8,0,1.2,0.2,1.6,0.5c0.3,0.2,0.7,0.4,1.6,0.5V26c-0.7-0.1-0.9-0.2-1.1-0.3c-0.5-0.3-1.1-0.7-2.2-0.7s-1.7,0.3-2.2,0.7
					c-0.5,0.3-0.8,0.5-1.6,0.5s-1.2-0.2-1.6-0.5c-0.3-0.2-0.6-0.4-1.1-0.5l2.8-3.8c0.2-0.3,0.1-0.6-0.1-0.8
					c-0.1-0.1-0.2-0.1-0.3-0.1H14v-1.1h11.4c0.3,0,0.6-0.3,0.6-0.6c0-0.1,0-0.2-0.1-0.4l-12-15.4c-0.2-0.2-0.6-0.3-0.8-0.1
					c-0.1,0.1-0.2,0.3-0.2,0.5v6.6l-7.3,8.5c-0.2,0.2-0.2,0.6,0.1,0.8c0.1,0.1,0.2,0.1,0.4,0.1h6.9v1.1H8.3c-0.3,0-0.6,0.3-0.6,0.6
					v4.3C7.4,25.1,6.9,25,6.2,25c-1.1,0-1.7,0.3-2.2,0.7c-0.5,0.3-0.8,0.5-1.6,0.5s-1.2-0.2-1.6-0.5c-0.3-0.2-0.7-0.4-1.2-0.5v1.2
					c0.2,0.1,0.4,0.2,0.6,0.3C0.7,26.9,1.3,27.3,2.4,27.3z M14,4.9l10.3,13.2H14V4.9z M7.3,18.1l5.6-6.5v6.5H7.3z M8.9,21.6h14.9
					L21.3,25c-1,0-1.5,0.4-2,0.7c-0.5,0.3-0.8,0.5-1.6,0.5c-0.8,0-1.2-0.2-1.6-0.5C15.5,25.3,15,25,13.9,25c-1.1,0-1.7,0.3-2.2,0.7
					c-0.5,0.3-0.8,0.5-1.6,0.5c-0.5,0-0.8-0.1-1.1-0.2L8.9,21.6L8.9,21.6z"/>
			</g>
		</g>
	</g>
</g>
<g>
	<path class="st0" d="M16,2c7.7,0,14,6.3,14,14s-6.3,14-14,14S2,23.7,2,16S8.3,2,16,2 M16,0C7.2,0,0,7.2,0,16c0,8.8,7.2,16,16,16
		s16-7.2,16-16C32,7.2,24.8,0,16,0L16,0z"/>
</g>
</svg>
