<?xml version="1.0" encoding="utf-8"?>
<!-- Generator: Adobe Illustrator 24.0.0, SVG Export Plug-In . SVG Version: 6.00 Build 0)  -->
<svg version="1.1" id="레이어_1" xmlns="http://www.w3.org/2000/svg" xmlns:xlink="http://www.w3.org/1999/xlink" x="0px"
	 y="0px" viewBox="0 0 1400 500" style="enable-background:new 0 0 1400 500;" xml:space="preserve">
<style type="text/css">
	.st0{fill:#FF0000;stroke:#FF0000;stroke-width:11;stroke-miterlimit:10;}
	.st1{fill:#FF0000;}
</style>
<g>
	<g>
		<g>
			<path class="st0" d="M59.9,450.5c19.6,0,29.9-6.1,38.9-11.5c8.1-4.8,14.5-8.7,28.5-8.7s20.4,3.8,28.5,8.7
				c9,5.4,19.3,11.5,38.9,11.5s29.9-6.1,38.9-11.5c8.1-4.8,14.4-8.7,28.5-8.7c14,0,20.4,3.8,28.5,8.7c9,5.4,19.2,11.5,38.9,11.5
				c19.6,0,29.9-6.1,38.9-11.5c8.1-4.8,14.4-8.7,28.5-8.7c14,0,20.4,3.8,28.5,8.7c9,5.4,19.2,11.5,38.9,11.5S494,444.4,503,439
				c8.1-4.8,14.4-8.7,28.5-8.7s20.4,3.8,28.5,8.7c5.8,3.5,12.1,7.2,29.1,9.5v-21.2c-11.9-1.5-15.1-3.5-18.7-5.6
				c-9-5.4-19.3-11.5-38.9-11.5c-19.6,0-29.9,6.1-38.9,11.5c-8.1,4.8-14.5,8.7-28.5,8.7s-20.4-3.8-28.5-8.7
				c-5.4-3.2-11.1-6.7-19.1-9l49-67.4c3.3-4.5,2.3-10.8-2.2-14.1c-1.7-1.3-3.8-1.9-6-1.9h-192v-20.2h202.1c5.6,0,10.1-4.5,10.1-10.1
				c0-2.3-0.7-4.4-2.1-6.2L263.2,19.9c-3.4-4.4-9.8-5.2-14.2-1.8c-2.5,1.9-3.9,4.9-3.9,8v116.3l-128.9,150
				c-3.6,4.2-3.1,10.6,1.1,14.2c1.8,1.6,4.2,2.4,6.6,2.4h121.3v20.2h-80.8c-5.6,0-10.1,4.5-10.1,10.1v75.9c-6.8-2.9-15.2-5.2-27-5.2
				c-19.6,0-29.9,6.1-38.9,11.5c-8.1,4.8-14.4,8.7-28.5,8.7s-20.4-3.8-28.5-8.7c-5.8-3.5-12.1-7.2-21.1-9.5v21.2
				c3.8,1.5,7,3.5,10.7,5.6C30,444.4,40.2,450.5,59.9,450.5z M265.4,55.6l181.4,233.3H265.4V55.6z M145.9,288.9l99.3-115.5v115.5
				H145.9z M174.4,349.5h263.1l-44.1,60.7c-17.5,0.7-27,6.4-35.5,11.5c-8.1,4.8-14.4,8.7-28.5,8.7s-20.4-3.8-28.5-8.7
				c-9-5.4-19.2-11.5-38.9-11.5c-19.6,0-29.9,6.1-38.9,11.5c-8.1,4.8-14.4,8.7-28.5,8.7c-9.1,0-15-1.6-20.2-4.1V349.5z"/>
		</g>
	</g>
</g>
<path class="st1" d="M852,191.7v262.7h-74.3V352H676.4v102.5h-74.3V191.7h74.3v98.7h101.3v-98.7H852z"/>
<path class="st1" d="M1076.4,219.9c21.8,22.3,32.6,54.3,32.6,96.1c0,30-5.8,55.9-17.5,77.5c-11.6,21.6-28,38.1-49.2,49.3
	c-21.1,11.3-45.6,16.9-73.4,16.9c-14.8,0-28.9-1.7-42.4-5.1c-13.5-3.4-25-8.1-34.5-14.1l27-53.3c12.8,9,28.9,13.5,48.4,13.5
	c18.8,0,34-5.2,45.6-15.6c11.6-10.4,18.4-25.5,20.5-45.2c-15,12.8-34.7,19.1-58.9,19.1c-16.5,0-31.7-3.4-45.4-10.3
	c-13.8-6.9-24.7-16.6-32.8-29.3c-8.1-12.6-12.2-27.1-12.2-43.3c0-17.8,4.6-33.5,13.7-47.1c9.1-13.6,21.5-24.1,37.2-31.5
	c15.6-7.4,33-11.1,52-11.1C1024.9,186.5,1054.7,197.6,1076.4,219.9z M1018.6,296.6c6.8-6.1,10.1-14.2,10.1-24.2
	c0-9.8-3.3-17.7-9.9-23.8c-6.6-6.1-15.6-9.2-26.8-9.2c-10.5,0-19.1,3-25.7,9c-6.6,6-9.9,14.1-9.9,24.4c0,10,3.3,18,9.9,24
	c6.6,6,15.3,9,26.1,9C1003.1,305.8,1011.9,302.7,1018.6,296.6z"/>
<path class="st1" d="M1205,442.2c-21.9-11.6-39.1-27.8-51.6-48.6c-12.5-20.8-18.8-44.3-18.8-70.6s6.3-49.8,18.8-70.6
	c12.5-20.8,29.7-37,51.6-48.6c21.9-11.6,46.6-17.5,74.1-17.5c24,0,45.7,4.3,64.9,12.8c19.3,8.5,35.3,20.8,48,36.8l-47.3,42.8
	c-17-20.5-37.7-30.8-61.9-30.8c-14.3,0-27,3.1-38.1,9.4c-11.1,6.3-19.8,15.1-25.9,26.5c-6.1,11.4-9.2,24.5-9.2,39.2
	c0,14.8,3.1,27.8,9.2,39.2c6.1,11.4,14.8,20.2,25.9,26.5c11.1,6.3,23.8,9.4,38.1,9.4c24.3,0,44.9-10.3,61.9-30.8l47.3,42.8
	c-12.8,16-28.8,28.3-48,36.8c-19.3,8.5-40.9,12.8-64.9,12.8C1251.5,459.7,1226.8,453.8,1205,442.2z"/>
</svg>
