<?xml version="1.0" encoding="utf-8"?>
<!-- Generator: Adobe Illustrator 24.0.0, SVG Export Plug-In . SVG Version: 6.00 Build 0)  -->
<svg version="1.1" id="레이어_1" xmlns="http://www.w3.org/2000/svg" xmlns:xlink="http://www.w3.org/1999/xlink" x="0px"
	 y="0px" viewBox="0 0 264.1 314.6" style="enable-background:new 0 0 264.1 314.6;" xml:space="preserve">
<style type="text/css">
	.st0{fill:#FFFFFF;}
	.st1{fill:#020202;}
</style>
<path class="st0" d="M213,171.4c-12.2,0-22,9.8-22,22v30.8c0,12.5-10.2,22.7-22.7,22.7H66.7c-12.5,0-22.7-10.2-22.7-22.7V122.6
	c0-12.5,10.2-22.7,22.7-22.7h30.8c12.2,0,22-9.8,22-22s-9.8-22-22-22H66.7C29.9,55.9,0,85.8,0,122.6v101.6
	c0,36.7,29.9,66.7,66.7,66.7h101.6c36.7,0,66.7-30,66.7-66.7v-30.8C235,181.2,225.1,171.4,213,171.4z"/>
<g>
	<g>
		<path class="st0" d="M155.5,149.3c-5.6,0-11.3-2.1-15.6-6.4c-8.6-8.6-8.6-22.5,0-31.1l57.7-57.7c8.6-8.6,22.5-8.6,31.1,0
			s8.6,22.5,0,31.1l-57.6,57.7C166.8,147.2,161.2,149.3,155.5,149.3z"/>
	</g>
	<path class="st0" d="M264.1,116.2V85.4c0-36.8-29.9-66.7-66.7-66.7h-30.8c-12.2,0-22,9.8-22,22s9.8,22,22,22h30.8
		c12.5,0,22.7,10.2,22.7,22.7v30.8l0,0l0,0c0,12.2,9.8,22,22,22S264.1,128.4,264.1,116.2L264.1,116.2z"/>
</g>
</svg>
